<svg width="16" height="16" viewBox="0 0 16 16" fill="none" xmlns="http://www.w3.org/2000/svg">
<path d="M8.7945 15.6786L15.6289 8.84424C15.9594 8.51726 15.9594 7.98291 15.6289 7.65243L8.7945 0.821592C8.46755 0.49111 7.93317 0.49111 7.60272 0.821592L6.82225 1.60207C6.48476 1.93605 6.49177 2.48097 6.83633 2.80792L11.0726 6.84384H0.968748C0.501178 6.84384 0.125 7.22001 0.125 7.68758V8.81258C0.125 9.28015 0.501178 9.65633 0.968748 9.65633H11.0726L6.83633 13.6923C6.4953 14.0192 6.48827 14.5641 6.82225 14.8981L7.60272 15.6786C7.92967 16.0091 8.46405 16.0091 8.7945 15.6786Z" fill="#32046B"/>
</svg>
