<svg width="16" height="16" viewBox="0 0 16 16" fill="none" xmlns="http://www.w3.org/2000/svg">
<path d="M8.39705 15.6786L9.17753 14.8981C9.51501 14.5641 9.50801 14.0192 9.16345 13.6923L4.92713 9.65633H15.031C15.4986 9.65633 15.8748 9.28015 15.8748 8.81258V7.68758C15.8748 7.22001 15.4986 6.84384 15.031 6.84384H4.92713L9.16345 2.80792C9.50447 2.48097 9.51151 1.93605 9.17753 1.60207L8.39705 0.821592C8.07011 0.49111 7.53573 0.49111 7.20528 0.821592L0.370908 7.65593C0.0404264 7.98291 0.0404264 8.51726 0.370908 8.84774L7.20528 15.6786C7.53223 16.0091 8.06661 16.0091 8.39705 15.6786Z" fill="#959EAD"/>
</svg>
